<?xml version="1.0" encoding="UTF-8" standalone="no"?>
<!DOCTYPE svg PUBLIC "-//W3C//DTD SVG 1.1//EN" "http://www.w3.org/Graphics/SVG/1.1/DTD/svg11.dtd">
<svg version="1.1" xmlns="http://www.w3.org/2000/svg" xmlns:xlink="http://www.w3.org/1999/xlink" preserveAspectRatio="xMidYMid meet" viewBox="168.46236559139777 143.73118279569894 397.54838709677426 390.02150537634407" width="393.55" height="386.02"><defs><path d="M563.01 337.74C563.01 444.27 474.84 530.75 366.24 530.75C257.63 530.75 169.46 444.27 169.46 337.74C169.46 231.22 257.63 144.73 366.24 144.73C474.84 144.73 563.01 231.22 563.01 337.74Z" id="c3DNF3FyCh"></path><path d="M547.96 337.74C547.96 435.66 467.01 515.16 367.31 515.16C267.61 515.16 186.67 435.66 186.67 337.74C186.67 239.82 267.61 160.32 367.31 160.32C467.01 160.32 547.96 239.82 547.96 337.74Z" id="b1iosR6Yfj"></path><path d="M512.11 339.8C512.11 420.03 447.21 485.16 367.27 485.16C287.33 485.16 222.42 420.03 222.42 339.8C222.42 259.58 287.33 194.44 367.27 194.44C447.21 194.44 512.11 259.58 512.11 339.8Z" id="a2oyMOooZG"></path><path d="M467.78 339.29C467.78 393.34 422.97 437.23 367.78 437.23C312.59 437.23 267.78 393.34 267.78 339.29C267.78 285.23 312.59 241.35 367.78 241.35C422.97 241.35 467.78 285.23 467.78 339.29Z" id="fdW2W6seh"></path><path d="M412.78 272.06L515.88 272.06L515.88 400.11L412.78 400.11L412.78 272.06Z" id="gPt837GU"></path><path d="M302.47 177.32L345.77 177.32L345.77 494.85L302.47 494.85L302.47 177.32Z" id="c1ZiksbZjJ"></path><path d="M383.3 177.32L426.6 177.32L426.6 494.85L383.3 494.85L383.3 177.32Z" id="c1WQIlzbJ2"></path></defs><g><g><use xlink:href="#c3DNF3FyCh" opacity="1" fill="#ffa50f" fill-opacity="1"></use></g><g><use xlink:href="#b1iosR6Yfj" opacity="1" fill="#fcff00" fill-opacity="1"></use></g><g><use xlink:href="#a2oyMOooZG" opacity="1" fill="#ffa50f" fill-opacity="1"></use></g><g><use xlink:href="#fdW2W6seh" opacity="1" fill="#fcff00" fill-opacity="1"></use></g><g><use xlink:href="#gPt837GU" opacity="1" fill="#fcff00" fill-opacity="1"></use></g><g><use xlink:href="#c1ZiksbZjJ" opacity="1" fill="#ffa50f" fill-opacity="1"></use></g><g><use xlink:href="#c1WQIlzbJ2" opacity="1" fill="#ffa50f" fill-opacity="1"></use></g></g></svg>